<mxfile host="app.diagrams.net" modified="2023-10-12T19:40:15.438Z" agent="Mozilla/5.0 (Windows NT 10.0; rv:109.0) Gecko/20100101 Firefox/118.0" etag="8MC-9C3rqIBB_A8fpZCZ" version="22.0.4" type="github">
  <diagram name="PÃ¡gina-1" id="V1dBWE2lvAN6cX8xjp6t">
    <mxGraphModel dx="874" dy="442" grid="1" gridSize="10" guides="1" tooltips="1" connect="1" arrows="1" fold="1" page="1" pageScale="1" pageWidth="827" pageHeight="1169" math="0" shadow="0">
      <root>
        <mxCell id="0" />
        <mxCell id="1" parent="0" />
        <mxCell id="mCP2dmAKx9ToSNLj1Qxv-7" style="edgeStyle=orthogonalEdgeStyle;rounded=0;orthogonalLoop=1;jettySize=auto;html=1;exitX=0;exitY=0.5;exitDx=0;exitDy=0;entryX=0.5;entryY=0;entryDx=0;entryDy=0;" edge="1" parent="1" source="mCP2dmAKx9ToSNLj1Qxv-1">
          <mxGeometry relative="1" as="geometry">
            <mxPoint x="200" y="130" as="targetPoint" />
          </mxGeometry>
        </mxCell>
        <mxCell id="mCP2dmAKx9ToSNLj1Qxv-1" value="CLIENTS" style="whiteSpace=wrap;html=1;align=center;fillColor=#FF99FF;" vertex="1" parent="1">
          <mxGeometry x="340" y="30" width="150" height="90" as="geometry" />
        </mxCell>
        <mxCell id="mCP2dmAKx9ToSNLj1Qxv-22" style="edgeStyle=orthogonalEdgeStyle;rounded=0;orthogonalLoop=1;jettySize=auto;html=1;exitX=0.75;exitY=1;exitDx=0;exitDy=0;entryX=0;entryY=0.75;entryDx=0;entryDy=0;" edge="1" parent="1" source="mCP2dmAKx9ToSNLj1Qxv-3" target="mCP2dmAKx9ToSNLj1Qxv-21">
          <mxGeometry relative="1" as="geometry" />
        </mxCell>
        <mxCell id="mCP2dmAKx9ToSNLj1Qxv-3" value="&lt;div&gt;Components&lt;/div&gt;&lt;div&gt;of Characters&lt;br&gt;&lt;/div&gt;" style="whiteSpace=wrap;html=1;align=center;fillColor=#FF0080;" vertex="1" parent="1">
          <mxGeometry x="130" y="130" width="120" height="40" as="geometry" />
        </mxCell>
        <mxCell id="mCP2dmAKx9ToSNLj1Qxv-18" value="SERVER" style="whiteSpace=wrap;html=1;align=center;fillColor=#97D077;" vertex="1" parent="1">
          <mxGeometry x="530" y="30" width="150" height="90" as="geometry" />
        </mxCell>
        <mxCell id="mCP2dmAKx9ToSNLj1Qxv-19" value="&lt;div&gt;FORM&lt;/div&gt;" style="whiteSpace=wrap;html=1;align=center;fillColor=#FF0080;" vertex="1" parent="1">
          <mxGeometry x="190" y="60" width="100" height="40" as="geometry" />
        </mxCell>
        <mxCell id="mCP2dmAKx9ToSNLj1Qxv-35" style="edgeStyle=orthogonalEdgeStyle;rounded=0;orthogonalLoop=1;jettySize=auto;html=1;exitX=0.5;exitY=1;exitDx=0;exitDy=0;entryX=0.5;entryY=0;entryDx=0;entryDy=0;" edge="1" parent="1" source="mCP2dmAKx9ToSNLj1Qxv-21" target="mCP2dmAKx9ToSNLj1Qxv-26">
          <mxGeometry relative="1" as="geometry" />
        </mxCell>
        <mxCell id="mCP2dmAKx9ToSNLj1Qxv-21" value="CARD" style="whiteSpace=wrap;html=1;align=center;fillColor=#CC0066;" vertex="1" parent="1">
          <mxGeometry x="295" y="160" width="80" height="40" as="geometry" />
        </mxCell>
        <mxCell id="mCP2dmAKx9ToSNLj1Qxv-34" style="edgeStyle=orthogonalEdgeStyle;rounded=0;orthogonalLoop=1;jettySize=auto;html=1;exitX=0.5;exitY=1;exitDx=0;exitDy=0;entryX=0.5;entryY=0;entryDx=0;entryDy=0;fillColor=#A680B8;" edge="1" parent="1" source="mCP2dmAKx9ToSNLj1Qxv-23" target="mCP2dmAKx9ToSNLj1Qxv-29">
          <mxGeometry relative="1" as="geometry" />
        </mxCell>
        <mxCell id="mCP2dmAKx9ToSNLj1Qxv-23" value="gender" style="ellipse;whiteSpace=wrap;html=1;align=center;fillColor=#A680B8;" vertex="1" parent="1">
          <mxGeometry x="300" y="420" width="70" height="40" as="geometry" />
        </mxCell>
        <mxCell id="mCP2dmAKx9ToSNLj1Qxv-31" style="edgeStyle=orthogonalEdgeStyle;rounded=0;orthogonalLoop=1;jettySize=auto;html=1;exitX=0.5;exitY=1;exitDx=0;exitDy=0;entryX=0.5;entryY=0;entryDx=0;entryDy=0;fillColor=#A680B8;" edge="1" parent="1" source="mCP2dmAKx9ToSNLj1Qxv-24" target="mCP2dmAKx9ToSNLj1Qxv-23">
          <mxGeometry relative="1" as="geometry" />
        </mxCell>
        <mxCell id="mCP2dmAKx9ToSNLj1Qxv-24" value="status" style="ellipse;whiteSpace=wrap;html=1;align=center;fillColor=#A680B8;" vertex="1" parent="1">
          <mxGeometry x="300" y="360" width="70" height="40" as="geometry" />
        </mxCell>
        <mxCell id="mCP2dmAKx9ToSNLj1Qxv-30" style="edgeStyle=orthogonalEdgeStyle;rounded=0;orthogonalLoop=1;jettySize=auto;html=1;exitX=0.5;exitY=1;exitDx=0;exitDy=0;entryX=0.5;entryY=0;entryDx=0;entryDy=0;fillColor=#A680B8;" edge="1" parent="1" source="mCP2dmAKx9ToSNLj1Qxv-25" target="mCP2dmAKx9ToSNLj1Qxv-24">
          <mxGeometry relative="1" as="geometry" />
        </mxCell>
        <mxCell id="mCP2dmAKx9ToSNLj1Qxv-25" value="name" style="ellipse;whiteSpace=wrap;html=1;align=center;fillColor=#A680B8;" vertex="1" parent="1">
          <mxGeometry x="300" y="300" width="70" height="40" as="geometry" />
        </mxCell>
        <mxCell id="mCP2dmAKx9ToSNLj1Qxv-28" style="edgeStyle=orthogonalEdgeStyle;rounded=0;orthogonalLoop=1;jettySize=auto;html=1;exitX=0.5;exitY=1;exitDx=0;exitDy=0;entryX=0.5;entryY=0;entryDx=0;entryDy=0;fillColor=#A680B8;" edge="1" parent="1" source="mCP2dmAKx9ToSNLj1Qxv-26" target="mCP2dmAKx9ToSNLj1Qxv-25">
          <mxGeometry relative="1" as="geometry" />
        </mxCell>
        <mxCell id="mCP2dmAKx9ToSNLj1Qxv-26" value="ID" style="ellipse;whiteSpace=wrap;html=1;align=center;fillColor=#A680B8;" vertex="1" parent="1">
          <mxGeometry x="300" y="240" width="70" height="40" as="geometry" />
        </mxCell>
        <mxCell id="mCP2dmAKx9ToSNLj1Qxv-29" value="image" style="ellipse;whiteSpace=wrap;html=1;align=center;fillColor=#A680B8;" vertex="1" parent="1">
          <mxGeometry x="300" y="480" width="70" height="40" as="geometry" />
        </mxCell>
        <mxCell id="mCP2dmAKx9ToSNLj1Qxv-37" value="Routers" style="whiteSpace=wrap;html=1;align=center;fillColor=#00FF00;" vertex="1" parent="1">
          <mxGeometry x="820" y="200" width="100" height="40" as="geometry" />
        </mxCell>
        <mxCell id="mCP2dmAKx9ToSNLj1Qxv-38" value="Controllers" style="whiteSpace=wrap;html=1;align=center;fillColor=#00CC00;" vertex="1" parent="1">
          <mxGeometry x="580" y="200" width="100" height="40" as="geometry" />
        </mxCell>
        <mxCell id="mCP2dmAKx9ToSNLj1Qxv-39" style="edgeStyle=orthogonalEdgeStyle;rounded=0;orthogonalLoop=1;jettySize=auto;html=1;exitX=1;exitY=0.5;exitDx=0;exitDy=0;entryX=0.58;entryY=0.025;entryDx=0;entryDy=0;entryPerimeter=0;" edge="1" parent="1" source="mCP2dmAKx9ToSNLj1Qxv-18">
          <mxGeometry relative="1" as="geometry">
            <mxPoint x="750.5999999999999" y="121" as="targetPoint" />
          </mxGeometry>
        </mxCell>
        <mxCell id="mCP2dmAKx9ToSNLj1Qxv-44" style="edgeStyle=orthogonalEdgeStyle;rounded=0;orthogonalLoop=1;jettySize=auto;html=1;exitX=0;exitY=0.5;exitDx=0;exitDy=0;entryX=0.75;entryY=0;entryDx=0;entryDy=0;" edge="1" parent="1" source="mCP2dmAKx9ToSNLj1Qxv-43" target="mCP2dmAKx9ToSNLj1Qxv-38">
          <mxGeometry relative="1" as="geometry" />
        </mxCell>
        <mxCell id="mCP2dmAKx9ToSNLj1Qxv-43" value="Index" style="whiteSpace=wrap;html=1;align=center;fillColor=#33FF33;" vertex="1" parent="1">
          <mxGeometry x="700" y="120" width="100" height="40" as="geometry" />
        </mxCell>
        <mxCell id="mCP2dmAKx9ToSNLj1Qxv-45" style="edgeStyle=orthogonalEdgeStyle;rounded=0;orthogonalLoop=1;jettySize=auto;html=1;exitX=1;exitY=0.5;exitDx=0;exitDy=0;entryX=0.38;entryY=0;entryDx=0;entryDy=0;entryPerimeter=0;" edge="1" parent="1" source="mCP2dmAKx9ToSNLj1Qxv-43" target="mCP2dmAKx9ToSNLj1Qxv-37">
          <mxGeometry relative="1" as="geometry" />
        </mxCell>
        <mxCell id="mCP2dmAKx9ToSNLj1Qxv-46" value="" style="line;strokeWidth=1;rotatable=0;dashed=0;labelPosition=right;align=left;verticalAlign=middle;spacingTop=0;spacingLeft=6;points=[];portConstraint=eastwest;" vertex="1" parent="1">
          <mxGeometry x="490" y="80" width="40" height="10" as="geometry" />
        </mxCell>
      </root>
    </mxGraphModel>
  </diagram>
</mxfile>
